<svg xmlns="http://www.w3.org/2000/svg" viewBox="0 0 750 471">
  <rect fill="#016FD0" width="750" height="471" rx="40"/>
  <path fill="#fff" d="M0 235.5h750" stroke="#fff" stroke-width="2"/>
  <g fill="#fff">
    <path d="M164.8 196.3l-52.5 120h36.3l9.8-23.4h56.1l9.8 23.4h37.4l-52.6-120h-44.3zm13.2 31.4l17.4 41.6h-34.8l17.4-41.6z"/>
    <path d="M270.7 316.3V196.3h53.5l31.2 80.4 30.3-80.4h53.1v120h-33V231l-35.8 85.3h-30.5l-35.8-85.3v85.3z"/>
    <path d="M455.9 316.3V196.3h109.8v27.5h-76.5v19.7h74.7v26.4h-74.7v19.9h76.5v26.5z"/>
    <path d="M580.2 316.3l48.3-60-48.3-60h41.8l28.5 36.4 28.9-36.4h40.4l-48 59.4 49.1 60.6h-42l-29.3-37-29.3 37z"/>
  </g>
</svg>
