<svg xmlns="http://www.w3.org/2000/svg" viewBox="0 0 750 471">
  <rect fill="#fff" width="750" height="471" rx="40"/>
  <path fill="#0079BE" d="M584.9 237.9c0-99.4-82.7-168.4-173.6-168.4H335c-91.5 0-169.8 69-169.8 168.4 0 92.4 78.3 165.4 169.8 165.4h76.3c90.9 0 173.6-73 173.6-165.4z"/>
  <path fill="#fff" d="M333.3 98.6c-75.1 0-136.1 62.2-136.1 138.9s61 138.9 136.1 138.9c75.2 0 136.2-62.2 136.2-138.9S408.5 98.6 333.3 98.6zm-87.4 138.9c.1-37.2 22.7-69.1 55-82.4v164.7c-32.3-13.3-54.9-45.1-55-82.3zm119.8 82.3V155.2c32.3 13.3 55 45.1 55 82.3.1 37.2-22.6 69-54.9 82.3z"/>
</svg>
