<svg xmlns="http://www.w3.org/2000/svg" viewBox="0 0 750 471">
  <rect fill="#fff" width="750" height="471" rx="40"/>
  <path fill="#1A1F71" d="M278.2 334.2h-46.4l29-178.9h46.4l-29 178.9zm147.7-174.5c-9.2-3.6-23.7-7.5-41.7-7.5-46 0-78.4 24.5-78.6 59.5-.3 25.9 23.1 40.3 40.7 48.9 18.1 8.8 24.2 14.4 24.1 22.3-.1 12-14.5 17.5-27.9 17.5-18.6 0-28.5-2.7-43.8-9.4l-6-2.9-6.5 40.3c10.9 5 31 9.4 51.9 9.6 48.9 0 80.7-24.2 81.1-61.5.2-20.5-12.2-36.1-39-48.9-16.2-8.3-26.2-13.9-26.1-22.3 0-7.5 8.4-15.5 26.6-15.5 15.2-.2 26.2 3.2 34.8 6.9l4.2 2.1 6.2-39.1zm119.8-4.3h-36c-11.1 0-19.5 3.2-24.4 15l-69.2 165.3h48.9s8-22.2 9.8-27.1l59.6.1c1.4 6.3 5.6 27 5.6 27h43.2l-37.5-180.3zm-57.2 116.4c3.8-10.4 18.6-50.4 18.6-50.4-.3.5 3.8-10.4 6.2-17.2l3.2 15.5s8.9 43 10.8 52.1h-38.8zm-262.8-116.4l-45.6 121.9-4.9-24.9c-8.5-28.8-34.8-60-64.3-75.6l41.7 157h49.3l73.3-178.4h-49.5z"/>
  <path fill="#F9A533" d="M146.9 155.3H71.4l-.6 3.8c58.5 15 97.2 51.1 113.3 94.5l-16.3-82.8c-2.8-11.4-11-14.8-20.9-15.5z"/>
</svg>
